<?xml version="1.0" encoding="UTF-8" standalone="no"?>
<!-- Created with Inkscape (http://www.inkscape.org/) -->

<svg
   width="100mm"
   height="100mm"
   viewBox="0 0 100 100"
   version="1.1"
   id="svg1"
   xml:space="preserve"
   inkscape:version="1.4 (1:1.4+202410161351+e7c3feb100)"
   sodipodi:docname="KonstantinProtzen-Arrow.svg"
   xmlns:inkscape="http://www.inkscape.org/namespaces/inkscape"
   xmlns:sodipodi="http://sodipodi.sourceforge.net/DTD/sodipodi-0.dtd"
   xmlns="http://www.w3.org/2000/svg"
   xmlns:svg="http://www.w3.org/2000/svg"><sodipodi:namedview
     id="namedview1"
     pagecolor="#505050"
     bordercolor="#ffffff"
     borderopacity="1"
     inkscape:showpageshadow="0"
     inkscape:pageopacity="0"
     inkscape:pagecheckerboard="1"
     inkscape:deskcolor="#505050"
     inkscape:document-units="mm"
     inkscape:zoom="1.4142136"
     inkscape:cx="193.04015"
     inkscape:cy="225.92061"
     inkscape:window-width="1920"
     inkscape:window-height="961"
     inkscape:window-x="1680"
     inkscape:window-y="32"
     inkscape:window-maximized="1"
     inkscape:current-layer="layer1" /><defs
     id="defs1" /><g
     inkscape:label="Ebene 1"
     inkscape:groupmode="layer"
     id="layer1"><path
       style="display:inline;fill:#000000"
       d="M 26.8,59.2 30.2,55.8 41,72 h 13 12.225 v -6.761538 -6.811537 l 4.18125,-0.0087 c 4.550203,-0.0095 4.341032,-0.0034 5.36875,-0.154712 C 84.708402,56.94855 90.44218,46.688553 87.162095,37.8875 84.967838,31.999919 79.950602,28.083226 74.1125,27.700366 73.872488,27.684626 57.025,27.676696 57.025,27.676696 L 40.3125,27.677619 26.8375,44.528192 26.8249,27.675 H 14.625 V 47.420862 L 14.658,72 H 26.825 Z M 38.002722,47.506278 54.0125,27.76155 54.025,33.037025 54.0375,38.3125 h 9.3375 c 0,0 9.345766,0.0019 9.5375,0.04565 1.774472,0.405063 2.658601,1.722976 2.79116,4.160596 0.162104,2.980932 -0.852052,4.966779 -2.67866,5.245156 -0.205607,0.03133 -9.618723,0.0195 -9.618723,0.0195 l -9.381222,-0.01669 -0.0126,22.587606 z"
       id="path2"
       inkscape:label="kp"
       sodipodi:nodetypes="cccccccccsscccccccccccccccsscccc" /></g></svg>
